# xmcd CD database file
#
# Track frame offsets:
#	150
#	25096
#	49141
#	73972
#	89816
#	108493
#	132003
#	153189
#	177250
#	203790
#
# Disc length: 2862 seconds
#
# Revision: 1
# Processed by: cddbd v1.5.2PL0 Copyright (c) Steve Scherf et al.
# Submitted via: CDex 1.51
#
DISCID=890b2c0a
DTITLE=Magnolia and van Endert - Humpty's Amazing Boogie Pencil
DYEAR=2007
DGENRE=Jazz
TTITLE0=Open Your Eyes you can Fly
TTITLE1=Turnaround
TTITLE2=Sky And Sea (Blue In Green)
TTITLE3=Humpty Dumpty
TTITLE4=Subatomic Blues
TTITLE5=Nothing To Lose
TTITLE6=Boogie Stop Shuffle
TTITLE7=Passion Dance
TTITLE8=Amazing
TTITLE9=Inchworm
EXTD=YEAR: 2007
EXTT0=
EXTT1=
EXTT2=
EXTT3=
EXTT4=
EXTT5=
EXTT6=
EXTT7=
EXTT8=
EXTT9=
PLAYORDER=
